PathFileType	4	(X/Y/Z)	G:\Shared drives\HPL_Drive\Nord Sprinting Study\Kristen_Nord_test\Trimmed_Nord000007.trc
DataRate	CameraRate	NumFrames	NumMarkers	Units	OrigDataRate	OrigDataStartFrame	OrigNumFrames
200.00	200.00	      4	52	mm	200.00	484	      1933
Frame#	Time	C7			R_Shoulder			L_Shoulder			Sternum			R_humerus			R_elbow_med			R_elbow_lat			R_forearm			R_wrist_radius			R_wrist_ulna			L_humerus			L_elbow_med			L_elbow_lat			L_forearm			L_wrist_radius			L_wrist_ulna			r.ASIS			r.PSIS			r_IC			L.ASIS			L.PSIS			l_IC			r_thigh1			r_thigh2			r_thigh3			r_thigh4			r_thigh5			r_knee			r_mknee			r_shank_antsup			r_sh2			r_sh3			r_sh4			r_ankle			r_mankle			r_calc			r_5meta			r_toe			L_thigh1			L_thigh2			L_thigh3			L_thigh4			L_knee			L_mknee			L_shank_antsup			L_sh2			L_sh3			L_ankle			L_mankle			L_calc			L_5meta			L_toe			
		X1	Y1	Z1	X2	Y2	Z2	X3	Y3	Z3	X4	Y4	Z4	X5	Y5	Z5	X6	Y6	Z6	X7	Y7	Z7	X8	Y8	Z8	X9	Y9	Z9	X10	Y10	Z10	X11	Y11	Z11	X12	Y12	Z12	X13	Y13	Z13	X14	Y14	Z14	X15	Y15	Z15	X16	Y16	Z16	X17	Y17	Z17	X18	Y18	Z18	X19	Y19	Z19	X20	Y20	Z20	X21	Y21	Z21	X22	Y22	Z22	X23	Y23	Z23	X24	Y24	Z24	X25	Y25	Z25	X26	Y26	Z26	X27	Y27	Z27	X28	Y28	Z28	X29	Y29	Z29	X30	Y30	Z30	X31	Y31	Z31	X32	Y32	Z32	X33	Y33	Z33	X34	Y34	Z34	X35	Y35	Z35	X36	Y36	Z36	X37	Y37	Z37	X38	Y38	Z38	X39	Y39	Z39	X40	Y40	Z40	X41	Y41	Z41	X42	Y42	Z42	X43	Y43	Z43	X44	Y44	Z44	X45	Y45	Z45	X46	Y46	Z46	X47	Y47	Z47	X48	Y48	Z48	X49	Y49	Z49	X50	Y50	Z50	X51	Y51	Z51	X52	Y52	Z52	

484	2.415	1225.48364	447.40692	1271.13257	1344.75427	502.66446	1271.43530	1079.06909	481.49542	1282.93982	1206.97595	576.17596	1226.91028	1516.71948	480.66351	1203.24939	1624.80078	519.31458	1095.33655	1630.78223	448.91986	1135.74731	1600.98767	496.77457	1248.49609	1544.73755	570.37360	1327.08228	1585.70691	549.69312	1343.17212	885.02289	433.71048	1217.57642	783.46008	475.63498	1123.59265	779.00812	405.89114	1158.15405	831.15601	462.00867	1283.79590	888.51129	514.10321	1347.81104	840.04480	515.71063	1363.21497	1327.54114	548.17511	750.66602	1286.40356	388.35071	857.77783	1365.96484	500.08270	850.24182	1087.90637	530.78424	751.09485	1169.49854	382.65723	852.47455	1064.40466	486.05096	840.60834	1383.22339	452.68750	504.76392	1374.47656	420.57468	394.45776	1388.76013	367.40186	379.66849	1395.75464	349.84973	537.08502	1371.32471	319.21683	423.80365	1368.52563	353.05899	302.42282	1244.30444	337.11121	321.70209	1383.87170	215.84106	291.51547	1363.91870	97.46526	295.58722	1392.14893	214.81679	366.03784	1371.74451	103.08243	377.38425	1346.87439	-64.32452	338.06409	1267.71753	-49.36456	315.92249	1293.52197	-89.08826	400.98505	1360.23401	-143.78801	245.54474	1319.81445	-124.67667	194.37416	1027.51013	449.05679	511.03622	1032.65051	414.75876	374.82251	1029.91699	334.06418	547.56720	1041.23730	309.06473	414.23480	1023.97223	334.30096	325.93481	1152.88330	341.04861	305.91907	1014.44513	222.53770	302.45706	1020.38733	227.11423	392.39240	1037.79675	107.73894	389.23752	1052.70850	-73.49220	343.38419	1131.19995	-46.11412	324.10196	1100.24695	-79.63409	403.87744	1069.12402	-160.18614	235.86606	1114.75635	-132.36041	187.28877	
485	2.420	1225.51514	447.77908	1271.02356	1344.72070	502.97845	1271.35730	1079.15100	481.83685	1282.89233	1207.00342	576.51331	1226.85962	1516.70679	480.97870	1203.21069	1624.77747	519.56348	1095.21790	1630.77173	449.15573	1135.70190	1600.97314	497.11252	1248.39050	1544.73804	570.69312	1326.93884	1584.73621	549.48822	1343.78210	885.02911	434.00092	1217.54187	783.46649	475.98444	1123.52808	779.03021	406.23999	1158.03333	831.15991	462.32748	1283.72046	888.47955	514.39435	1347.76917	839.78467	516.27570	1362.91052	1327.50317	548.41779	750.55835	1286.46509	388.66409	857.72913	1365.97485	500.38544	850.16211	1087.91772	531.00836	751.02234	1169.57239	382.90100	852.46869	1064.40320	486.31778	840.53119	1383.65820	452.33783	504.86407	1374.48975	420.60147	394.41000	1388.78955	367.46063	379.65613	1395.74585	349.99243	537.09351	1371.33093	319.23645	423.80450	1368.48352	353.04688	302.41617	1244.29004	337.12405	321.69092	1383.82959	215.93884	291.59720	1363.15076	97.90738	295.61145	1392.12720	214.84650	366.05762	1371.72754	103.06281	377.37881	1346.82104	-64.34402	338.07175	1267.68591	-49.35784	315.94601	1293.51257	-89.08443	400.95392	1360.18445	-143.79929	245.52150	1319.80261	-124.70879	194.28830	1027.48022	449.13110	511.00150	1032.64087	414.75906	374.80798	1029.88354	334.21750	547.55664	1041.25476	309.10208	414.25604	1023.98767	334.31119	325.93979	1152.90552	341.05197	305.93994	1014.49591	222.49036	302.36261	1020.45795	227.07381	392.43896	1037.92139	107.73425	389.22559	1052.94617	-73.52352	343.41727	1131.36951	-46.09052	324.12003	1100.45618	-79.58478	403.89493	1069.46533	-160.24460	235.96658	1115.15723	-132.32378	187.33398	
486	2.425	1225.54041	448.11392	1270.95239	1344.70764	503.31113	1271.26453	1079.05823	482.16296	1282.81665	1207.00598	576.85468	1226.77087	1516.72949	481.25012	1203.00928	1624.74902	519.83252	1095.07800	1630.83215	449.42679	1135.55969	1600.97388	497.41092	1248.24768	1544.75745	571.05505	1326.77173	1584.49670	549.91315	1343.48889	885.04175	434.32483	1217.42993	783.49042	476.36346	1123.45093	778.98816	406.55087	1157.95593	831.08203	462.64389	1283.70911	888.44568	514.71295	1347.70276	839.77167	516.51367	1362.83704	1327.48169	548.66840	750.43097	1286.51514	388.98776	857.68799	1365.98792	500.69058	850.01904	1087.89954	531.19006	751.00006	1169.58643	383.11432	852.43994	1064.41370	486.55292	840.47949	1383.65198	452.39447	504.82413	1374.46289	420.62881	394.35861	1388.77026	367.50949	379.60892	1395.73230	350.08102	537.05389	1371.32349	319.31494	423.79071	1368.49146	353.06180	302.38007	1244.30457	337.17975	321.67514	1383.75232	215.82472	291.61148	1363.88000	97.42816	295.60321	1392.07947	214.83830	366.04691	1371.66626	103.05106	377.38556	1346.78345	-64.33029	338.04349	1267.65100	-49.35764	315.95563	1293.52747	-89.09605	400.91830	1360.16223	-143.79362	245.49139	1319.76465	-124.67888	194.31934	1027.42493	449.19275	510.92578	1032.64258	414.79834	374.80582	1029.95251	334.17020	547.54736	1041.23352	309.16876	414.28018	1024.02930	334.30081	325.96365	1152.54688	341.00974	305.89017	1014.58728	222.48370	302.39139	1020.51056	227.09915	392.42377	1038.04980	107.71792	389.26874	1053.20935	-73.50044	343.46381	1131.55322	-46.08407	324.16177	1100.66370	-79.52348	403.93149	1069.83667	-160.30676	236.00584	1115.41064	-132.39453	187.50185	
487	2.430	1225.55212	448.44196	1270.86926	1344.78308	503.56238	1271.09717	1079.04016	482.48004	1282.73584	1207.02661	577.15863	1226.70178	1516.71558	481.56808	1202.99109	1624.50964	520.03351	1095.03088	1630.79407	449.68185	1135.46484	1600.99683	497.68500	1248.05200	1544.75061	571.42157	1326.61902	1584.50208	550.35614	1343.38318	885.04425	434.67508	1217.25916	783.51880	476.69431	1123.37085	779.02032	406.90350	1157.83167	831.06915	462.99222	1283.65344	888.45911	515.04901	1347.54858	839.46515	516.70502	1363.08264	1327.46851	548.90363	750.30548	1286.54297	389.29117	857.67621	1366.03491	500.98578	849.87134	1087.81494	531.36884	750.90723	1169.71460	383.38354	852.37195	1064.41272	486.78799	840.41486	1383.62561	452.47208	504.73355	1374.50183	420.66586	394.32309	1388.75781	367.49466	379.60535	1395.73108	350.19598	537.03827	1371.32178	319.38757	423.81406	1368.52722	353.05038	302.37842	1244.29846	337.19818	321.65759	1383.70593	215.80743	291.65189	1363.12964	97.88965	295.59140	1392.09253	214.81889	366.07053	1371.67908	103.07980	377.37231	1346.77234	-64.37648	338.00345	1267.65918	-49.32757	315.94641	1293.50073	-89.11601	400.92197	1360.17090	-143.80981	245.42986	1319.77478	-124.69093	194.27879	1027.46619	449.24414	510.94720	1032.61816	414.82489	374.77286	1030.00171	334.27979	547.56927	1041.28442	309.17889	414.27881	1024.01025	334.27533	326.02100	1152.88733	341.11572	305.87488	1014.65930	222.44489	302.52060	1020.52557	227.02374	392.44724	1038.12000	107.74574	389.34207	1052.88721	-73.61963	343.86725	1131.72632	-46.05272	324.16074	1100.87024	-79.46175	403.92520	1070.18115	-160.32199	236.06381	1115.73621	-132.36143	187.65665	
